PathFileType	4	(X/Y/Z)	C:/Users/beibeiliu/ov580/test_trc/User2\sequence.24_training_dense_left.trc
DataRate	CameraRate	NumFrames	NumMarkers	Units	OrigDataRate	OrigDataStartFrame	OrigNumFrames
120	120	23	19	mm	120	339	451
Frame#	Time	ThumbCMC			ThumbMCP			ThumbIP			ThumbTip			IndexMCP			IndexPIP			IndexTip			MiddleMCP			MiddlePIP			MiddleTip			RingMCP			RingPIP			RingTip			PinkyMCP			PinkyPIP			PinkyTip			BackHand1			BackHand2			BackHand3	
		X0	Y0	Z0	X1	Y1	Z1	X2	Y2	Z2	X3	Y3	Z3	X4	Y4	Z4	X5	Y5	Z5	X6	Y6	Z6	X7	Y7	Z7	X8	Y8	Z8	X9	Y9	Z9	X10	Y10	Z10	X11	Y11	Z11	X12	Y12	Z12	X13	Y13	Z13	X14	Y14	Z14	X15	Y15	Z15	X16	Y16	Z16	X17	Y17	Z17	X18	Y18	Z18	
338	2.81667	-191.309	-117.247	73.6142	-208.501	-150.81	59.6765	-232.145	-171.717	50.2842	-261.076	-181.774	44.3318	-247.485	-113.346	12.5781	-266.528	-120.73	-2.52654	-287.992	-128.758	-22.1135	-269.114	-110.267	16.8652	-294.196	-123.46	-1.86723	-314.381	-131.597	-18.5677	-284.345	-126.138	33.4267	-288.547	-159.047	37.0402	-263.161	-171.128	58.9212	-286.968	-128.958	60.8468	-281.449	-162.005	63.0815	-262.042	-169.349	84.7023	-254.542	-81.697	73.4009	-233.661	-68.533	96.3618	-214.973	-82.6324	63.8576	
339	2.825	-192.904	-113.418	71.0916	-204.56	-147.84	56.5706	-230.793	-171.95	43.0958	-259.933	-177.336	40.8651	-247.933	-108.806	13.8411	-266.476	-118.496	-8.31471	-289.034	-124.782	-22.0644	-274.046	-109.515	15.5617	-297.039	-121.801	-2.24195	-318.032	-129.901	-18.4814	-284.921	-123.651	36.9912	-285.628	-154.436	30.7126	-260.518	-170.667	55.4394	-286.706	-129.755	59.4942	-279.142	-164.334	62.6487	-252.142	-165.538	79.7506	-253.236	-84.0921	71.2141	-236.639	-67.9914	94.8764	-219.395	-77.1774	63.5801	
340	2.83333	-193.037	-108.298	69.2687	-203.302	-143.867	50.5188	-226.723	-164.148	40.3948	-253.897	-177.104	34.3492	-247.024	-105.884	7.84861	-269.513	-113.409	-6.48503	-288.056	-121.903	-21.9572	-273.551	-106.734	12.097	-296.848	-119.028	-3.58593	-316.708	-128.242	-19.3407	-281.957	-127.339	29.3738	-283.376	-158.695	31.0111	-257.04	-169.518	49.6989	-284.67	-131.857	56.6657	-274.664	-164.995	58.2659	-248.107	-165.971	80.0869	-260.223	-84.9105	72.1148	-241.782	-70.2607	96.5257	-221.191	-74.3968	63.7288	
341	2.84167	-189.862	-102.929	65.392	-201.534	-136.449	44.7981	-222.979	-160.581	33.6484	-246.556	-173.918	29.5725	-251.266	-101.458	8.23687	-270.032	-110.003	-11.5199	-293.068	-118.553	-26.3583	-275.705	-104.606	12.7047	-294.969	-116.71	-4.49264	-318.01	-128.271	-25.5213	-279.479	-127.209	25.4177	-277.47	-155.554	22.8994	-250.679	-165.651	44.9273	-285.695	-138.812	52.8599	-268.749	-164.393	52.5412	-243.461	-163.888	71.3936	-257.206	-84.7076	70.4194	-244.721	-70.3012	96.3974	-222.936	-71.394	62.4791	
342	2.85	-189.876	-96.1691	60.3005	-196.756	-129.709	38.8534	-216.086	-156.734	25.5549	-241.228	-170.891	22.2688	-252.622	-97.2103	4.17082	-269.538	-106.692	-15.5887	-291.052	-116.076	-29.5556	-271.916	-101.031	10.484	-292.897	-114.331	-8.8692	-311.991	-126.672	-30.4628	-280.921	-127.408	25.1959	-268.567	-157.503	17.0615	-241.522	-160.201	41.3308	-278.984	-136.035	50.2691	-260.305	-166.974	50.2406	-237.058	-158.805	69.6927	-263.045	-83.8886	71.7714	-247.362	-68.8212	92.4863	-228.623	-67.1231	64.4856	
343	2.85833	-193.719	-88.7722	58.6351	-189.802	-119.746	38.6122	-211.05	-148.562	18.8871	-234.764	-163.71	20.209	-249.283	-91.934	1.24238	-270.357	-102.861	-16.4924	-285.86	-111.825	-34.9591	-274.22	-100.203	6.11199	-291.648	-113.954	-17.9756	-307.86	-127.588	-35.285	-272.248	-127.188	18.8098	-259.696	-157.658	13.1751	-234.755	-158.134	38.4309	-271.384	-141.23	41.2218	-249.403	-164.985	44.6469	-227.809	-153.681	62.547	-263.137	-87.3462	67.9162	-250.933	-73.0504	93.1597	-230.666	-64.413	62.5042	
344	2.86667	-186.701	-80.0999	58.2826	-187.666	-111.181	33.0873	-199.867	-139.853	17.618	-219.278	-158.852	15.0926	-247.539	-87.7501	1.93964	-262.374	-97.3123	-21.0115	-282.298	-111.884	-36.2686	-270.152	-99.9752	4.57836	-286.499	-114.692	-21.2492	-302.32	-133.257	-43.5814	-267.406	-128.519	16.5246	-250.865	-153.202	7.0132	-221.391	-148.135	32.2461	-263.505	-139.218	39.1958	-235.278	-159.337	38.4242	-216.948	-146.592	59.6349	-260.032	-85.617	65.5863	-250.609	-72.8409	93.1328	-231.238	-62.3934	58.5303	
345	2.875	-185.887	-72.2524	56.4851	-179.748	-102.2	35.3558	-190.876	-132.898	16.1709	-211.945	-154.824	10.4794	-243.148	-85.8185	1.28456	-259.371	-99.4316	-23.6731	-272.315	-110.856	-39.817	-264.859	-100.866	6.02365	-276.449	-115.865	-23.7151	-288.58	-139.234	-43.3967	-259.975	-130.304	13.6093	-240.338	-151.129	4.44098	-213.738	-145.87	29.7525	-253.543	-142.162	36.5762	-222.841	-158.246	37.9939	-209.885	-140.077	61.2749	-257.144	-88.4184	66.474	-247.234	-73.7028	92.9042	-229.907	-61.8186	62.7288	
346	2.88333	-184.19	-65.774	58.6901	-173.696	-96.1678	33.8887	-183.175	-127.647	17.5491	-199.306	-152.031	11.3374	-237.762	-86.99	-3.52955	-251.357	-101.418	-25.162	-264.611	-115.125	-42.7466	-256.034	-100.919	-0.443209	-266.93	-118.67	-22.5463	-275.823	-145.194	-47.6411	-248.832	-127.953	14.1361	-228.808	-152.065	4.47927	-201.001	-139.06	28.1596	-240.636	-141.656	35.2976	-210.767	-155.078	37.0963	-197.894	-135.418	59.2391	-251.212	-91.1277	61.9144	-248.631	-78.708	90.8267	-229.436	-58.2473	59.9248	
347	2.89167	-183.589	-63.4745	58.7968	-166.852	-92.729	33.7344	-170.466	-125.055	17.2094	-186.061	-147.23	15.5867	-231.966	-89.1337	-0.117933	-242.228	-104.948	-21.0564	-250.653	-118.882	-42.0468	-247.692	-104.239	-0.529145	-258.057	-128.981	-24.7047	-261.1	-149.384	-49.1827	-238.034	-134.607	11.9362	-215.088	-153.134	6.43813	-189.353	-135.656	31.1786	-228.511	-144.874	36.6662	-195.711	-150.166	38.4235	-188.924	-126.671	60.59	-246.278	-92.6311	59.0064	-242.922	-76.1664	88.7357	-225.479	-58.9842	56.0703	
348	2.9	-181.6	-59.681	63.5706	-158.143	-85.9308	38.3983	-158.032	-117.376	23.791	-167.622	-142.99	19.9925	-223.975	-90.5883	-1.69717	-232.108	-109.486	-21.8407	-240.316	-126.137	-42.2236	-238.265	-110.068	-2.1443	-243.537	-132.594	-26.3447	-247.785	-155.548	-46.672	-226.35	-136.728	16.6127	-198.539	-151.348	8.49754	-179.417	-133.905	39.201	-216.894	-146.325	40.9642	-184.62	-150.362	43.5121	-180.968	-123.544	65.8209	-240.868	-94.3054	62.1792	-239.315	-77.3533	89.8012	-226.766	-61.0715	60.625	
349	2.90833	-179.065	-56.3034	64.4767	-156.786	-81.7872	44.2371	-149.676	-115.738	26.144	-157.445	-143.622	20.3187	-216.312	-93.5007	2.36224	-219.842	-109.58	-20.0303	-227.033	-129.69	-42.4926	-229.415	-116.085	4.30379	-229.861	-134.32	-21.1891	-229.426	-157.161	-48.7447	-212.326	-137.625	16.5278	-181.759	-149.546	14.4324	-166.98	-128.895	37.8643	-201.727	-148.662	40.4148	-171.604	-146.213	45.2508	-168.55	-121.317	64.9857	-237.365	-100.735	64.9875	-239.064	-80.9667	90.6152	-223.767	-64.5303	60.6333	
350	2.91667	-177.767	-53.3408	65.7177	-150.119	-76.1602	46.0511	-138.329	-105.877	31.452	-140.038	-134.711	27.1031	-209.33	-98.5884	-1.61056	-210.688	-116.585	-18.1587	-212.964	-136.806	-40.4422	-217.831	-121.845	2.09346	-215.306	-142.627	-21.2072	-212.203	-164.323	-45.1753	-198.389	-135.803	20.1972	-164.915	-145.467	19.4739	-155.868	-121.495	44.1481	-192.305	-148.385	46.7716	-157.385	-141.982	51.0525	-159.069	-115.925	71.9373	-226.302	-105.767	62.3352	-233.82	-83.7178	88.5194	-223.248	-66.1244	63.3107	
351	2.925	-178.141	-50.9845	64.0311	-145.575	-71.0001	47.1093	-129.399	-101.691	33.4988	-128.065	-127.278	30.9476	-199.651	-99.7092	-0.99466	-198.235	-117.419	-17.2473	-196.768	-141.105	-40.1917	-206.507	-125.53	6.49087	-201.66	-141.413	-19.7316	-195.09	-167.572	-37.8884	-182.49	-143.087	22.9672	-150.495	-143.955	25.3253	-144.147	-121.751	49.9379	-177.953	-145.27	48.8704	-146.599	-138.677	51.7501	-148.498	-114.898	74.7147	-220.118	-105.74	66.3937	-228.346	-92.2075	90.8767	-220.109	-68.6517	59.9823	
352	2.93333	-178.808	-50.707	65.3965	-144.955	-64.7094	51.0771	-125.278	-97.249	36.552	-118.149	-119.46	36.7873	-192.008	-100.689	0.654899	-187.141	-120.201	-22.5387	-182.643	-142.948	-35.8271	-196.154	-124.06	8.00589	-188.415	-144.4	-15.1545	-177.888	-166.17	-42.0776	-168.882	-142.33	26.3775	-139.756	-138.472	26.6423	-135.327	-111.45	52.0509	-162.923	-147.02	51.3154	-135.222	-131.804	57.2643	-139.937	-107.963	77.6511	-214.418	-113.272	64.8941	-225.251	-94.977	94.5474	-218.991	-74.2336	62.3234	
353	2.94167	-180.081	-51.1932	64.8943	-144.842	-60.2404	53.6766	-121.587	-88.7242	41.1471	-109.832	-109.031	40.7966	-184.475	-106.469	3.20033	-176.525	-123.176	-17.9256	-169.11	-138.503	-36.2344	-184.84	-126.277	4.91648	-172.592	-143.858	-17.3266	-163.495	-165.017	-36.5598	-160.477	-137.804	31.8976	-127.526	-130.523	31.4695	-126.592	-104.951	54.243	-152.721	-143.036	56.3608	-126.668	-123.185	60.679	-134.057	-102.249	81.6163	-205.983	-113.275	66.1705	-222.106	-94.5672	91.834	-215.989	-76.6551	58.2293	
354	2.95	-181.545	-45.4293	64.7005	-143.105	-55.2775	51.7535	-117.765	-79.9365	43.0842	-104.236	-102.7	43.0844	-178.105	-103.41	3.90055	-167.007	-120.917	-15.7988	-157.32	-134.879	-33.4321	-176.063	-126.363	12.5532	-161.303	-142.414	-13.7678	-149.236	-160.597	-32.2581	-150.636	-132.598	33.0559	-119.495	-122.963	34.6161	-122.302	-97.9099	60.3944	-147.275	-134.458	59.5228	-117.757	-115.838	67.4932	-130.546	-91.9278	81.1152	-202.91	-113.668	68.3888	-221.596	-99.5675	95.0991	-213.587	-78.441	62.3038	
355	2.95833	-184.283	-45.785	65.4359	-144.364	-50.0656	52.4867	-115.628	-74.8415	44.1981	-98.5363	-89.8364	44.7047	-170.81	-105.281	6.27122	-158.115	-122.053	-13.9641	-147.934	-132.663	-31.0835	-166.066	-128.474	11.5319	-151.817	-139.664	-10.599	-136.909	-157.699	-28.3661	-142.9	-130.628	37.7301	-111.898	-116.936	38.9259	-116.456	-91.3996	60.2327	-134.546	-131.898	63.1361	-114.065	-107.298	68.5658	-126.78	-85.8178	87.604	-195.174	-118.521	73.1757	-216.41	-101.936	91.9751	-211.105	-82.7092	57.5259	
356	2.96667	-186.246	-45.9674	64.0914	-147.321	-48.7065	53.523	-117.932	-65.35	48.5697	-94.5076	-84.653	45.2436	-165.208	-104.405	6.57706	-153.369	-117.073	-9.57423	-137.523	-135.972	-27.0614	-160.408	-125.113	15.0905	-141.343	-139.066	-6.57461	-124.585	-156.03	-27.5935	-136.002	-124.422	37.3605	-106.271	-110.388	41.5185	-112.381	-85.8359	67.0265	-130.412	-125.042	63.4303	-109.49	-100.538	70.4629	-125.732	-78.7604	86.9753	-188.76	-117.748	73.7682	-213.549	-101.562	94.5915	-210.252	-84.3135	57.9748	
357	2.975	-187.545	-44.1754	66.1311	-149.131	-41.7678	54.5857	-115.243	-61.9277	46.7082	-97.068	-76.8397	49.1833	-161.857	-102.436	10.8484	-147.561	-114.597	-7.77977	-132.376	-130.569	-21.5963	-154.996	-119.21	16.5297	-135.386	-133.911	-2.57134	-115.94	-150.479	-25.88	-131.202	-121.433	40.5142	-101.756	-108.267	45.3041	-108.654	-78.0305	65.9801	-126.913	-120.011	66.8905	-106.363	-98.688	73.5189	-125.47	-75.3632	92.4983	-187.961	-116.027	75.7783	-210.491	-105.118	96.0608	-208.201	-85.9706	62.4499	
358	2.98333	-189.437	-42.801	65.0694	-149.616	-40.0152	55.8925	-117.264	-56.3459	49.834	-95.4276	-72.023	50.2512	-160.243	-98.732	10.9767	-143.156	-113.681	-3.44008	-124.337	-128.067	-22.0341	-147.806	-121.392	16.4069	-127.863	-132.128	-2.49401	-108.485	-146.331	-19.3067	-122.77	-120.748	44.501	-98.336	-105.956	49.6847	-105.079	-75.8765	72.6678	-121.697	-119.219	71.6574	-102.926	-92.4933	81.1195	-121.77	-70.8951	91.7654	-182.985	-116.097	72.1261	-208.207	-108.309	95.4013	-206.585	-83.7256	60.4713	
359	2.99167	-188.322	-46.5625	62.9077	-152.601	-38.7135	55.1822	-116.936	-50.1571	49.1013	-93.9188	-63.8155	50.4114	-155.646	-97.8388	9.44639	-137.101	-110.539	-6.69255	-119.762	-125.246	-19.5693	-145.883	-116.758	18.4818	-124.268	-127.066	2.72808	-99.1081	-144.61	-16.9682	-123.726	-116.555	47.6657	-94.6337	-97.7319	52.8212	-103.307	-71.1998	73.8086	-125.029	-113.648	72.6166	-101.75	-90.2941	79.8009	-122.857	-67.7613	97.2964	-180.202	-117.38	75.4061	-206.648	-108.024	98.7312	-203.008	-86.0123	57.1579	
360	3	-190.268	-45.0496	62.0964	-156.085	-38.6152	56.7303	-118.975	-53.1079	51.9229	-95.0076	-60.661	50.8413	-151.083	-100.692	14.5715	-131.815	-111.391	-4.24562	-112.537	-124.854	-15.363	-140.804	-115.688	19.5188	-117.017	-128.108	3.60846	-93.433	-138.45	-16.7029	-120.612	-114.55	50.5409	-92.7615	-94.5108	53.7551	-105.46	-64.9428	74.9676	-118.178	-108.541	72.1986	-99.6947	-84.6679	81.6975	-121.336	-63.4102	94.1254	-175.297	-116.516	75.0575	-201.229	-109.465	96.2983	-202.656	-89.4792	60.5301	
